<?xml version="1.0" encoding="UTF-8" standalone="no"?>
<svg
   sodipodi:docname="logo-printform.svg"
   inkscape:version="1.1.1 (1:1.1+202109281943+c3084ef5ed)"
   id="svg867"
   version="1.1"
   viewBox="0 0 90 15"
   height="1.5cm"
   width="9cm"
   xmlns:inkscape="http://www.inkscape.org/namespaces/inkscape"
   xmlns:sodipodi="http://sodipodi.sourceforge.net/DTD/sodipodi-0.dtd"
   xmlns="http://www.w3.org/2000/svg"
   xmlns:svg="http://www.w3.org/2000/svg"
   xmlns:rdf="http://www.w3.org/1999/02/22-rdf-syntax-ns#"
   xmlns:cc="http://creativecommons.org/ns#"
   xmlns:dc="http://purl.org/dc/elements/1.1/">
  <defs
     id="defs861" />
  <sodipodi:namedview
     units="cm"
     inkscape:window-maximized="1"
     inkscape:window-y="27"
     inkscape:window-x="0"
     inkscape:window-height="1016"
     inkscape:window-width="1920"
     showgrid="false"
     inkscape:document-rotation="0"
     inkscape:current-layer="layer1"
     inkscape:document-units="mm"
     inkscape:cy="131.60714"
     inkscape:cx="138.75"
     inkscape:zoom="2.8"
     inkscape:pageshadow="2"
     inkscape:pageopacity="0.0"
     borderopacity="1.0"
     bordercolor="#666666"
     pagecolor="#ffffff"
     id="base"
     inkscape:pagecheckerboard="0" />
  <metadata
     id="metadata864">
    <rdf:RDF>
      <cc:Work
         rdf:about="">
        <dc:format>image/svg+xml</dc:format>
        <dc:type
           rdf:resource="http://purl.org/dc/dcmitype/StillImage" />
        <dc:title />
      </cc:Work>
    </rdf:RDF>
  </metadata>
  <g
     id="layer1"
     inkscape:groupmode="layer"
     inkscape:label="Layer 1">
    <g
       id="g765"
       transform="matrix(0.74084855,0,0,0.80688396,-45.390326,-68.604759)"
       style="fill:#000000">
      <path
         id="path1523-6-8-2-0"
         d="m 72.397749,91.500761 c 0.35321,-0.52957 0.708706,-1.061131 1.061945,-1.590701 0.172081,0.27871 0.344187,0.555451 0.516268,0.834157 -0.527579,0.252851 -1.052899,0.503693 -1.580478,0.756544 z"
         class="fil2"
         inkscape:connector-curvature="0"
         style="clip-rule:evenodd;display:inline;opacity:0.572;fill:#000000;fill-opacity:1;fill-rule:evenodd;stroke-width:0.00212319;image-rendering:optimizeQuality;shape-rendering:geometricPrecision;text-rendering:geometricPrecision" />
      <path
         id="path1525-2-8-9-4"
         d="m 73.461956,89.91006 c 0.704208,0 1.406133,0 2.11034,-0.0023 -0.532101,0.278708 -1.061968,0.557439 -1.594074,0.834158 -0.172078,-0.278708 -0.344159,-0.55545 -0.516266,-0.834158 z"
         class="fil3"
         inkscape:connector-curvature="0"
         style="clip-rule:evenodd;display:inline;opacity:0.786;fill:#000000;fill-opacity:1;fill-rule:evenodd;stroke-width:0.00212319;image-rendering:optimizeQuality;shape-rendering:geometricPrecision;text-rendering:geometricPrecision" />
      <path
         id="path1527-8-4-3-1"
         d="m 73.978222,90.744217 c 0.163032,0.252851 0.323804,0.505682 0.486837,0.76052 0.369071,-0.531557 0.738168,-1.063116 1.107237,-1.594677 -0.532101,0.27871 -1.061968,0.557438 -1.594074,0.834157 z"
         class="fil4"
         inkscape:connector-curvature="0"
         style="clip-rule:evenodd;display:inline;opacity:0.54;fill:#000000;fill-opacity:1;fill-rule:evenodd;stroke-width:0.00212319;image-rendering:optimizeQuality;shape-rendering:geometricPrecision;text-rendering:geometricPrecision" />
      <path
         id="path1529-9-3-1-0"
         d="m 72.397749,91.500761 c 0.527579,-0.252851 1.052894,-0.503693 1.580473,-0.756544 0.163032,0.252851 0.323804,0.505682 0.486837,0.76052 -0.688352,0 -1.378964,-0.0023 -2.06731,-0.0023 z"
         class="fil5"
         inkscape:connector-curvature="0"
         style="clip-rule:evenodd;display:inline;opacity:0.425;fill:#000000;fill-opacity:1;fill-rule:evenodd;stroke-width:0.00212319;image-rendering:optimizeQuality;shape-rendering:geometricPrecision;text-rendering:geometricPrecision" />
      <path
         id="path1531-5-1-9-4"
         d="m 73.461956,89.91006 c 0.348712,-0.533546 0.695162,-1.067096 1.043845,-1.600644 0.355501,0.533548 0.711,1.065107 1.066495,1.598657 -0.704207,0 -1.406132,0 -2.11034,0.0023 z"
         class="fil6"
         inkscape:connector-curvature="0"
         style="clip-rule:evenodd;display:inline;opacity:0.677;fill:#000000;fill-opacity:1;fill-rule:evenodd;stroke-width:0.00212319;image-rendering:optimizeQuality;shape-rendering:geometricPrecision;text-rendering:geometricPrecision" />
      <path
         id="path1533-0-4-4-8"
         d="m 74.505801,88.311407 c 0.355501,0 0.711,0 1.06876,0 0,0.533546 0,1.065107 0,1.598653 -0.355498,-0.533546 -0.710999,-1.065107 -1.066495,-1.598653 z"
         class="fil7"
         inkscape:connector-curvature="0"
         style="clip-rule:evenodd;display:inline;opacity:0.832;fill:#000000;fill-opacity:1;fill-rule:evenodd;stroke-width:0.00212319;image-rendering:optimizeQuality;shape-rendering:geometricPrecision;text-rendering:geometricPrecision" />
      <path
         id="path1535-2-9-7-7"
         d="m 74.505801,88.311407 c 0.355501,-0.531561 0.713262,-1.06312 1.06876,-1.596668 0,0.531561 0,1.063118 0,1.596668 -0.355498,0 -0.710999,0 -1.06876,0 z"
         class="fil8"
         inkscape:connector-curvature="0"
         style="clip-rule:evenodd;display:inline;opacity:0.807;fill:#000000;fill-opacity:1;fill-rule:evenodd;stroke-width:0.00212319;image-rendering:optimizeQuality;shape-rendering:geometricPrecision;text-rendering:geometricPrecision" />
      <path
         id="path1537-7-2-8-0"
         d="m 77.664519,89.91006 c -0.344162,-0.533546 -0.688349,-1.067096 -1.032514,-1.600644 -0.353233,0.533548 -0.70647,1.065107 -1.059709,1.598657 0.697398,0 1.394825,0 2.092223,0.0023 z"
         class="fil9"
         inkscape:connector-curvature="0"
         style="clip-rule:evenodd;display:inline;opacity:0.834;fill:#000000;fill-opacity:1;fill-rule:evenodd;stroke-width:0.00212319;image-rendering:optimizeQuality;shape-rendering:geometricPrecision;text-rendering:geometricPrecision" />
      <path
         id="path1539-2-0-4-8"
         d="m 76.632005,88.311407 c -0.353233,0 -0.70647,0 -1.059709,0 0,0.533546 0,1.065107 0,1.598653 0.353239,-0.533546 0.706476,-1.065107 1.059709,-1.598653 z"
         class="fil10"
         inkscape:connector-curvature="0"
         style="clip-rule:evenodd;display:inline;opacity:0.761;fill:#000000;fill-opacity:1;fill-rule:evenodd;stroke-width:0.00212319;image-rendering:optimizeQuality;shape-rendering:geometricPrecision;text-rendering:geometricPrecision" />
      <path
         id="path1541-8-6-5-6"
         d="m 76.632005,88.311407 c -0.353233,-0.531561 -0.70647,-1.06312 -1.057444,-1.596668 0,0.531561 0,1.063118 0,1.596668 0.353236,0 0.70647,0 1.059709,0 z"
         class="fil11"
         inkscape:connector-curvature="0"
         style="clip-rule:evenodd;display:inline;opacity:0.772;fill:#000000;fill-opacity:1;fill-rule:evenodd;stroke-width:0.00212319;image-rendering:optimizeQuality;shape-rendering:geometricPrecision;text-rendering:geometricPrecision" />
      <path
         id="path1543-1-8-0-2"
         d="m 75.572296,89.91006 c 0.366812,0.531561 0.733645,1.06312 1.098192,1.594677 0.330591,-0.531557 0.663442,-1.063116 0.994031,-1.592686 -0.697398,0 -1.394825,0 -2.092223,-0.0023 z"
         class="fil12"
         inkscape:connector-curvature="0"
         style="clip-rule:evenodd;display:inline;fill:#000000;fill-opacity:1;fill-rule:evenodd;stroke-width:0.00212319;image-rendering:optimizeQuality;shape-rendering:geometricPrecision;text-rendering:geometricPrecision" />
      <path
         id="path1545-7-9-3-4"
         d="m 77.664519,89.91006 c -0.330589,0.531561 -0.66344,1.06312 -0.994031,1.59269 0.681565,0 1.363128,-0.0023 2.046925,-0.0023 -0.350946,-0.52957 -0.70192,-1.061129 -1.052894,-1.590699 z"
         class="fil13"
         inkscape:connector-curvature="0"
         style="clip-rule:evenodd;display:inline;fill:#000000;fill-opacity:1;fill-rule:evenodd;stroke-width:0.00212319;image-rendering:optimizeQuality;shape-rendering:geometricPrecision;text-rendering:geometricPrecision" />
      <path
         d="m 61.835751,86.682827 h 4.875511 v 1.18804 h -1.635797 v 3.623204 h -1.603917 v -3.623204 h -1.635797 z"
         style="font-style:normal;font-variant:normal;font-weight:normal;font-stretch:normal;font-size:medium;line-height:1.25;font-family:'Arial Black';-inkscape-font-specification:'Arial Black, ';letter-spacing:0px;word-spacing:0px;display:inline;fill:#000000;fill-opacity:1;stroke:none;stroke-width:1.03089"
         id="path1702-7-2-6-7"
         inkscape:connector-curvature="0" />
      <path
         d="m 67.146066,91.494071 v -4.811244 h 2.673217 q 0.743545,0 1.136549,0.118139 0.393005,0.118142 0.633774,0.439774 0.240769,0.318352 0.240769,0.77781 0,0.400374 -0.184114,0.692462 -0.184109,0.288811 -0.506317,0.469313 -0.205348,0.114864 -0.562955,0.190358 0.286787,0.0886 0.417789,0.177221 0.08851,0.05908 0.254931,0.252695 0.16995,0.193634 0.226607,0.298666 l 0.775416,1.394806 h -1.812837 l -0.856856,-1.4703 Q 69.419184,89.738263 69.291704,89.652914 69.118212,89.541327 68.8987,89.541327 h -0.141616 v 1.952744 z m 1.610992,-2.861803 h 0.676293 q 0.109742,0 0.424878,-0.06564 0.15933,-0.02952 0.258458,-0.150985 0.102696,-0.121419 0.102696,-0.278956 0,-0.233004 -0.159353,-0.357726 -0.159308,-0.124696 -0.598353,-0.124696 h -0.704593 z"
         style="font-style:normal;font-variant:normal;font-weight:normal;font-stretch:normal;font-size:medium;line-height:1.25;font-family:'Arial Black';-inkscape-font-specification:'Arial Black, ';letter-spacing:0px;word-spacing:0px;display:inline;fill:#000000;fill-opacity:1;stroke:none;stroke-width:1.03089"
         id="path1704-9-6-1-9"
         inkscape:connector-curvature="0" />
      <path
         d="m 78.818749,86.721002 h 1.394336 l 1.819599,2.661615 v -2.661615 h 1.407521 v 4.811244 h -1.407521 l -1.809702,-2.641931 v 2.641931 h -1.404233 z"
         style="font-style:normal;font-variant:normal;font-weight:normal;font-stretch:normal;font-size:medium;line-height:1.25;font-family:'Arial Black';-inkscape-font-specification:'Arial Black, ';letter-spacing:0px;word-spacing:0px;display:inline;fill:#000000;fill-opacity:1;stroke:none;stroke-width:0.994686"
         id="path1706-7-6-0-3"
         inkscape:connector-curvature="0" />
      <path
         d="m 83.811051,89.94053 1.420708,-0.0886 q 0.04614,0.344593 0.18789,0.525095 0.230744,0.292088 0.659275,0.292088 0.319741,0 0.491153,-0.147683 0.174703,-0.150962 0.174703,-0.347873 0,-0.187078 -0.164806,-0.334761 -0.164831,-0.147683 -0.764749,-0.278957 -0.982332,-0.219897 -1.400966,-0.584177 -0.421925,-0.364302 -0.421925,-0.928768 0,-0.370859 0.214266,-0.699043 0.217556,-0.331462 0.649378,-0.51854 0.435112,-0.190354 1.18999,-0.190354 0.926265,0 1.410812,0.344593 0.487862,0.341339 0.580175,1.089606 l -1.407547,0.08205 q -0.05604,-0.32493 -0.237324,-0.472612 -0.178019,-0.147683 -0.494469,-0.147683 -0.260409,0 -0.392259,0.111589 -0.13185,0.108287 -0.13185,0.265822 0,0.114865 0.108791,0.206766 0.105475,0.09518 0.501024,0.177224 0.979015,0.210044 1.40094,0.426639 0.425241,0.21332 0.616422,0.531672 0.194497,0.318332 0.194497,0.712153 0,0.462755 -0.257119,0.853301 -0.257119,0.390544 -0.718606,0.594007 -0.461487,0.200213 -1.163615,0.200213 -1.232818,0 -1.707493,-0.472592 -0.474675,-0.472588 -0.537296,-1.20117 z"
         style="font-style:normal;font-variant:normal;font-weight:normal;font-stretch:normal;font-size:medium;line-height:1.25;font-family:'Arial Black';-inkscape-font-specification:'Arial Black, ';letter-spacing:0px;word-spacing:0px;display:inline;fill:#000000;fill-opacity:1;stroke:none;stroke-width:0.994686"
         id="path1708-9-4-6-9"
         inkscape:connector-curvature="0" />
      <g
         id="text1717-8-9-3-2"
         style="font-style:normal;font-weight:normal;font-size:39.4032px;line-height:1.25;font-family:sans-serif;letter-spacing:0px;word-spacing:0px;display:inline;fill:#000000;fill-opacity:1;stroke:none;stroke-width:0.98508"
         transform="matrix(0.19137096,0,0,0.1684525,8.4570833,63.728912)"
         aria-label="FASHION">
        <path
           id="path1929-5-2-8"
           style="fill:#000000;fill-opacity:1;stroke-width:0.98508"
           d="m 426.32894,136.44394 h 16.50778 v 3.27077 h -12.62133 v 8.46553 h 11.38998 v 3.27078 h -11.38998 v 13.718 h -3.88645 z"
           inkscape:connector-curvature="0" />
        <path
           id="path1931-0-0-3"
           style="fill:#000000;fill-opacity:1;stroke-width:0.98508"
           d="m 455.01554,140.27267 -5.27172,14.2952 h 10.56267 z m -2.19334,-3.82873 h 4.40592 l 10.94747,28.72508 h -4.04037 l -2.61662,-7.36886 h -12.94841 l -2.61662,7.36886 h -4.09808 z"
           inkscape:connector-curvature="0" />
        <path
           id="path1933-4-6-0"
           style="fill:#000000;fill-opacity:1;stroke-width:0.98508"
           d="m 489.57029,137.38669 v 3.79025 q -2.21258,-1.05819 -4.17504,-1.57766 -1.96247,-0.51948 -3.79025,-0.51948 -3.17457,0 -4.90616,1.23135 -1.71235,1.23135 -1.71235,3.50165 0,1.90474 1.13516,2.88598 1.15439,0.96199 4.3482,1.55842 l 2.34726,0.481 q 4.3482,0.82731 6.40687,2.92445 2.0779,2.07791 2.0779,5.57956 0,4.17504 -2.80902,6.3299 -2.78977,2.15487 -8.19617,2.15487 -2.03942,0 -4.3482,-0.46176 -2.28954,-0.46176 -4.75224,-1.36603 v -4.00188 q 2.3665,1.32754 4.6368,2.00094 2.2703,0.67339 4.46364,0.67339 3.32849,0 5.13704,-1.30831 1.80854,-1.3083 1.80854,-3.73252 0,-2.11639 -1.30831,-3.30926 -1.28907,-1.19287 -4.252,-1.7893 l -2.3665,-0.46176 q -4.34821,-0.86579 -6.29143,-2.71282 -1.94322,-1.84702 -1.94322,-5.13703 0,-3.80949 2.67433,-6.00283 2.69358,-2.19334 7.40734,-2.19334 2.02019,0 4.11733,0.36555 2.09714,0.36556 4.29048,1.09667 z"
           inkscape:connector-curvature="0" />
        <path
           id="path1935-8-1-1"
           style="fill:#000000;fill-opacity:1;stroke-width:0.98508"
           d="m 497.36242,136.44394 h 3.88645 v 11.77478 h 14.12204 v -11.77478 h 3.88645 v 28.72508 h -3.88645 V 151.4895 h -14.12204 v 13.67952 h -3.88645 z"
           inkscape:connector-curvature="0" />
        <path
           id="path1937-7-5-7"
           style="fill:#000000;fill-opacity:1;stroke-width:0.98508"
           d="m 526.99178,136.44394 h 3.88645 v 28.72508 h -3.88645 z"
           inkscape:connector-curvature="0" />
        <path
           id="path1939-1-5-8"
           style="fill:#000000;fill-opacity:1;stroke-width:0.98508"
           d="m 550.27199,139.0798 q -4.23277,0 -6.73395,3.15533 -2.48194,3.15534 -2.48194,8.60021 0,5.42564 2.48194,8.58097 2.50118,3.15533 6.73395,3.15533 4.23276,0 6.69546,-3.15533 2.48194,-3.15533 2.48194,-8.58097 0,-5.44487 -2.48194,-8.60021 -2.4627,-3.15533 -6.69546,-3.15533 z m 0,-3.15533 q 6.04131,0 9.6584,4.0596 3.61709,4.04037 3.61709,10.85127 0,6.79166 -3.61709,10.85127 -3.61709,4.04037 -9.6584,4.04037 -6.06055,0 -9.69688,-4.04037 -3.61709,-4.04037 -3.61709,-10.85127 0,-6.8109 3.61709,-10.85127 3.63633,-4.0596 9.69688,-4.0596 z"
           inkscape:connector-curvature="0" />
        <path
           id="path1941-7-4-9"
           style="fill:#000000;fill-opacity:1;stroke-width:0.98508"
           d="m 569.62726,136.44394 h 5.23324 l 12.73677,24.03056 v -24.03056 h 3.77101 v 28.72508 h -5.23323 l -12.73678,-24.03056 v 24.03056 h -3.77101 z"
           inkscape:connector-curvature="0" />
      </g>
    </g>
    <g
       aria-label="INDONESIA"
       transform="matrix(0.67418816,0,0,0.44487149,0.19988275,0.55363197)"
       id="text3136"
       style="font-size:4.88851px;line-height:1.25;stroke-width:0.122212">
      <path
         d="m 39.172091,13.341172 h 0.482167 v 3.563743 h -0.482167 z"
         id="path5326" />
      <path
         d="m 40.613819,13.341172 h 0.649256 l 1.580172,2.981323 v -2.981323 h 0.467846 v 3.563743 h -0.649255 l -1.580173,-2.981323 v 2.981323 h -0.467846 z"
         id="path5328" />
      <path
         d="m 44.752822,13.737408 v 2.77127 h 0.58242 q 0.737573,0 1.078909,-0.334175 0.343724,-0.334176 0.343724,-1.05504 0,-0.71609 -0.343724,-1.047879 -0.341336,-0.334176 -1.078909,-0.334176 z m -0.482168,-0.396236 h 0.990592 q 1.035944,0 1.520498,0.432041 0.484555,0.429654 0.484555,1.34625 0,0.921369 -0.486942,1.353411 -0.486941,0.432041 -1.518111,0.432041 h -0.990592 z"
         id="path5330" />
      <path
         d="m 49.481405,13.668186 q -0.525132,0 -0.835438,0.391463 -0.307919,0.391463 -0.307919,1.066975 0,0.673125 0.307919,1.064587 0.310306,0.391463 0.835438,0.391463 0.525133,0 0.830665,-0.391463 0.307919,-0.391462 0.307919,-1.064587 0,-0.675512 -0.307919,-1.066975 -0.305532,-0.391463 -0.830665,-0.391463 z m 0,-0.391462 q 0.749508,0 1.198258,0.50365 0.44875,0.501263 0.44875,1.34625 0,0.842599 -0.44875,1.34625 -0.44875,0.501263 -1.198258,0.501263 -0.751894,0 -1.203031,-0.501263 -0.44875,-0.501264 -0.44875,-1.34625 0,-0.844987 0.44875,-1.34625 0.451137,-0.50365 1.203031,-0.50365 z"
         id="path5332" />
      <path
         d="m 51.882695,13.341172 h 0.649255 l 1.580173,2.981323 v -2.981323 h 0.467845 v 3.563743 H 53.930713 L 52.35054,13.923592 v 2.981323 h -0.467845 z"
         id="path5334" />
      <path
         d="m 55.53953,13.341172 h 2.253298 v 0.405784 h -1.77113 v 1.05504 h 1.697134 v 0.405785 h -1.697134 v 1.291349 h 1.814095 v 0.405785 H 55.53953 Z"
         id="path5336" />
      <path
         d="m 60.764602,13.458133 v 0.470233 q -0.274501,-0.131283 -0.517972,-0.195731 -0.243471,-0.06445 -0.470233,-0.06445 -0.393849,0 -0.608677,0.152766 -0.21244,0.152766 -0.21244,0.434429 0,0.236309 0.140831,0.358045 0.143219,0.119348 0.539455,0.193344 l 0.29121,0.05967 q 0.539455,0.10264 0.794861,0.362819 0.257792,0.257793 0.257792,0.692221 0,0.517972 -0.348497,0.785313 -0.346111,0.26734 -1.016849,0.26734 -0.253018,0 -0.539454,-0.05729 -0.284049,-0.05729 -0.589581,-0.169475 v -0.496489 q 0.293597,0.1647 0.575259,0.248244 0.281662,0.08354 0.553776,0.08354 0.412946,0 0.637321,-0.162314 0.224375,-0.162313 0.224375,-0.463071 0,-0.262567 -0.162314,-0.410559 -0.159927,-0.147992 -0.52752,-0.221988 l -0.293597,-0.05729 q -0.539455,-0.107414 -0.780538,-0.336563 -0.241084,-0.229149 -0.241084,-0.63732 0,-0.47262 0.331788,-0.744734 0.334176,-0.272114 0.918983,-0.272114 0.250632,0 0.510811,0.04535 0.26018,0.04535 0.532294,0.136057 z"
         id="path5338" />
      <path
         d="m 61.731325,13.341172 h 0.482168 v 3.563743 h -0.482168 z"
         id="path5340" />
      <path
         d="m 64.364149,13.816178 -0.654029,1.773518 h 1.310445 z m -0.272114,-0.475006 h 0.546615 l 1.358185,3.563743 h -0.501263 l -0.324628,-0.914209 h -1.606429 l -0.324628,0.914209 h -0.508424 z"
         id="path5342" />
    </g>
  </g>
</svg>
