<?xml version="1.0" encoding="UTF-8" standalone="no"?>
<svg
   xmlns:dc="http://purl.org/dc/elements/1.1/"
   xmlns:cc="http://creativecommons.org/ns#"
   xmlns:rdf="http://www.w3.org/1999/02/22-rdf-syntax-ns#"
   xmlns:svg="http://www.w3.org/2000/svg"
   xmlns="http://www.w3.org/2000/svg"
   xmlns:sodipodi="http://sodipodi.sourceforge.net/DTD/sodipodi-0.dtd"
   xmlns:inkscape="http://www.inkscape.org/namespaces/inkscape"
   width="16"
   height="16"
   viewBox="0 0 4.2333333 4.2333333"
   version="1.1"
   id="svg8"
   inkscape:version="1.0.1 (0767f8302a, 2020-10-17)"
   sodipodi:docname="etap-trans3.svg">
  <defs
     id="defs2">
    <inkscape:path-effect
       effect="powerstroke"
       id="path-effect862"
       is_visible="true"
       lpeversion="1"
       offset_points="0,0.674052"
       sort_points="true"
       interpolator_type="CubicBezierJohan"
       interpolator_beta="0.2"
       start_linecap_type="zerowidth"
       linejoin_type="extrp_arc"
       miter_limit="4"
       scale_width="1"
       end_linecap_type="zerowidth" />
  </defs>
  <sodipodi:namedview
     id="base"
     pagecolor="#7a7a7a"
     bordercolor="#666666"
     borderopacity="1.0"
     inkscape:pageopacity="0"
     inkscape:pageshadow="2"
     inkscape:zoom="45.254834"
     inkscape:cx="3.1197494"
     inkscape:cy="9.6013064"
     inkscape:document-units="mm"
     inkscape:current-layer="layer1"
     inkscape:document-rotation="0"
     showgrid="true"
     inkscape:window-width="1874"
     inkscape:window-height="1016"
     inkscape:window-x="46"
     inkscape:window-y="27"
     inkscape:window-maximized="1"
     units="px"
     inkscape:snap-global="true"
     showguides="true"
     inkscape:guide-bbox="true"
     inkscape:snap-to-guides="false"
     inkscape:object-nodes="true">
    <inkscape:grid
       type="xygrid"
       id="grid60" />
  </sodipodi:namedview>
  <metadata
     id="metadata5">
    <rdf:RDF>
      <cc:Work
         rdf:about="">
        <dc:format>image/svg+xml</dc:format>
        <dc:type
           rdf:resource="http://purl.org/dc/dcmitype/StillImage" />
        <dc:title></dc:title>
      </cc:Work>
    </rdf:RDF>
  </metadata>
  <g
     inkscape:label="Layer 1"
     inkscape:groupmode="layer"
     id="layer1">
    <g
       aria-label="DOC"
       transform="matrix(0.88595284,0,0,0.89243146,0.39344915,0.99550352)"
       id="text896"
       style="font-style:normal;font-weight:normal;font-size:2.37752px;line-height:1.25;font-family:sans-serif;fill:#000000;fill-opacity:1;stroke:none;stroke-width:0.297556" />
    <path
       style="color:#000000;font-style:normal;font-variant:normal;font-weight:normal;font-stretch:normal;font-size:medium;line-height:normal;font-family:sans-serif;font-variant-ligatures:normal;font-variant-position:normal;font-variant-caps:normal;font-variant-numeric:normal;font-variant-alternates:normal;font-variant-east-asian:normal;font-feature-settings:normal;font-variation-settings:normal;text-indent:0;text-align:start;text-decoration:none;text-decoration-line:none;text-decoration-style:solid;text-decoration-color:#000000;letter-spacing:normal;word-spacing:normal;text-transform:none;writing-mode:lr-tb;direction:ltr;text-orientation:mixed;dominant-baseline:auto;baseline-shift:baseline;text-anchor:start;white-space:normal;shape-padding:0;shape-margin:0;inline-size:0;clip-rule:nonzero;display:inline;overflow:visible;visibility:visible;opacity:1;isolation:auto;mix-blend-mode:normal;color-interpolation:sRGB;color-interpolation-filters:linearRGB;solid-color:#000000;solid-opacity:1;vector-effect:none;fill:#000080;fill-opacity:1;fill-rule:nonzero;stroke:none;stroke-width:0.264585;stroke-linecap:round;stroke-linejoin:miter;stroke-miterlimit:4;stroke-dasharray:none;stroke-dashoffset:0;stroke-opacity:1;color-rendering:auto;image-rendering:auto;shape-rendering:auto;text-rendering:auto;enable-background:accumulate;stop-color:#000000;stop-opacity:1"
       d="m 0,0 v 4.2333333 l 3.4236076,1e-7 0.8097257,-1e-7 V 0 Z M 0.26458332,0.26458333 H 3.96875 l 0,3.70416667 -3.70416668,9.115e-4 z"
       id="path980"
       sodipodi:nodetypes="ccccccccccc" />
    <rect
       style="fill:#000000;fill-opacity:0.702195;stroke:none;stroke-width:0.264581;stroke-linecap:round;stroke-miterlimit:4;stroke-dasharray:none"
       id="rect996"
       width="3.7041667"
       height="0.52916676"
       x="0.26458332"
       y="0.79374993" />
    <rect
       style="fill:#ffffff;fill-opacity:0.702195;stroke:none;stroke-width:0.264582;stroke-linecap:round;stroke-miterlimit:4;stroke-dasharray:none"
       id="rect996-3"
       width="0.79374999"
       height="0.52916682"
       x="0.26458335"
       y="1.8520832" />
    <rect
       style="fill:#ffffff;fill-opacity:0.702195;stroke:none;stroke-width:0.264582;stroke-linecap:round;stroke-miterlimit:4;stroke-dasharray:none"
       id="rect996-3-2"
       width="0.79374981"
       height="0.52916682"
       x="0.26458353"
       y="2.9104166" />
    <rect
       style="fill:#000000;fill-opacity:0.702195;stroke:none;stroke-width:0.264583;stroke-linecap:round;stroke-miterlimit:4;stroke-dasharray:none"
       id="rect996-3-5"
       width="0.26458338"
       height="2.6458333"
       x="1.0583333"
       y="1.3229166" />
    <g
       aria-label="Rp"
       transform="matrix(0.98823889,0,0,1.4678887,0.4150575,-1.0908095)"
       id="text1105"
       style="font-style:normal;font-weight:normal;font-size:1.55494px;line-height:1.25;font-family:sans-serif;fill:#333333;fill-opacity:1;stroke:none;stroke-width:0.219676">
      <path
         d="m 1.7518597,2.4602485 q 0.091869,0 0.1313499,-0.034166 0.04024,-0.034166 0.04024,-0.1123687 0,-0.077443 -0.04024,-0.1108502 -0.039481,-0.033407 -0.1313499,-0.033407 H 1.6288615 v 0.290792 z m -0.1229982,0.20196 V 3.0911837 H 1.336551 V 1.9576263 h 0.4464378 q 0.2239782,0 0.3279952,0.075166 0.1047762,0.075166 0.1047762,0.2376446 0,0.1123687 -0.054666,0.1844973 -0.053907,0.072129 -0.1632384,0.1062947 0.059981,0.013667 0.107054,0.062258 0.047833,0.047833 0.096425,0.1457756 L 2.3600174,3.0911837 H 2.0487257 L 1.9105425,2.8095026 Q 1.8687839,2.7244669 1.8255067,2.6933377 1.7829888,2.6622085 1.7116195,2.6622085 Z"
         style="font-weight:bold;fill:#333333;stroke-width:0.219676"
         id="path1107" />
      <path
         d="M 2.7927888,2.9681855 V 3.4146233 H 2.520978 V 2.2408259 h 0.2718108 v 0.1245166 q 0.056184,-0.074406 0.1245166,-0.1093317 0.068332,-0.035685 0.1571644,-0.035685 0.1571643,0 0.2581443,0.1252759 0.10098,0.1245167 0.10098,0.3211619 0,0.1966453 -0.10098,0.3219212 -0.10098,0.1245167 -0.2581443,0.1245167 -0.088832,0 -0.1571644,-0.034925 -0.068332,-0.035685 -0.1245166,-0.110091 z m 0.180701,-0.5504548 q -0.087314,0 -0.1343869,0.064536 -0.046314,0.063777 -0.046314,0.1844973 0,0.1207204 0.046314,0.1852565 0.047073,0.063777 0.1343869,0.063777 0.087314,0 0.1328684,-0.063777 0.046314,-0.063777 0.046314,-0.1852565 0,-0.1214797 -0.046314,-0.1852565 -0.045555,-0.063777 -0.1328684,-0.063777 z"
         style="font-weight:bold;fill:#333333;stroke-width:0.219676"
         id="path1109" />
    </g>
  </g>
</svg>
